<?xml version="1.0" encoding="UTF-8" standalone="no"?><!DOCTYPE svg PUBLIC "-//W3C//DTD SVG 1.1//EN" "http://www.w3.org/Graphics/SVG/1.1/DTD/svg11.dtd"><svg width="100%" height="100%" viewBox="0 0 14157 5227" version="1.1" xmlns="http://www.w3.org/2000/svg" xmlns:xlink="http://www.w3.org/1999/xlink" xml:space="preserve" xmlns:serif="http://www.serif.com/" style="fill-rule:evenodd;clip-rule:evenodd;stroke-linejoin:round;stroke-miterlimit:2;"><g><path d="M956.52,856.15l0,75.022c-85.024,2.501 -149.417,11.878 -193.18,28.133c-43.761,16.253 -73.146,46.262 -88.149,90.025c-15.005,43.761 -22.506,111.905 -22.506,204.432l0,1860.527c0,90.025 7.501,157.545 22.506,202.557c15.004,45.013 44.388,74.395 88.149,88.149c43.763,13.754 108.157,20.63 193.18,20.63l273.827,0c117.534,0 213.186,-12.503 286.956,-37.51c73.77,-25.007 132.537,-64.393 176.3,-118.158c43.761,-53.765 76.896,-125.661 99.403,-215.687c22.506,-90.025 40.011,-200.056 52.515,-330.093l86.273,0c-7.501,77.523 -11.253,180.051 -11.253,307.586c0,47.514 1.876,115.657 5.627,204.433c3.752,88.776 10.628,180.676 20.632,275.703c-127.537,-5.002 -271.328,-8.127 -431.373,-9.377c-160.044,-1.251 -302.585,-1.876 -427.621,-1.876l-211.934,0c-86.275,0 -179.426,0.625 -279.453,1.876c-100.029,1.25 -201.308,2.501 -303.836,3.75c-102.53,1.25 -200.056,3.126 -292.583,5.627l0,-75.022c85.024,-5 149.417,-15.004 193.178,-30.007c43.763,-15.005 73.146,-45.013 88.151,-90.025c15.004,-45.013 22.506,-112.532 22.506,-202.557l0,-1860.527c0,-92.526 -7.503,-160.67 -22.506,-204.432c-15.005,-43.763 -44.388,-73.772 -88.151,-90.025c-43.761,-16.255 -108.155,-25.632 -193.178,-28.133l0,-75.022c52.514,2.501 121.284,5.002 206.308,7.503c85.024,2.501 176.3,3.75 273.827,3.75c87.526,0 174.424,-1.25 260.699,-3.75c86.275,-2.501 158.169,-5.002 215.687,-7.503Z" style="fill-rule:nonzero;"/><path d="M4505.023,856.15l0,75.022c-85.024,2.501 -149.417,15.004 -193.18,37.51c-43.761,22.506 -73.146,58.767 -88.149,108.781c-15.004,50.013 -22.506,121.284 -22.506,213.81l0,1129.069c0,175.049 -11.253,327.592 -33.76,457.63c-22.506,130.036 -62.517,242.568 -120.035,337.595c-62.517,105.029 -153.792,189.428 -273.827,253.197c-120.035,63.767 -257.572,95.652 -412.617,95.652c-120.033,0 -234.441,-14.379 -343.222,-43.138c-108.78,-28.758 -204.432,-81.898 -286.956,-159.419c-72.519,-70.02 -129.412,-143.79 -170.672,-221.313c-41.262,-77.523 -69.395,-172.548 -84.399,-285.08c-15.005,-112.532 -22.506,-253.823 -22.506,-423.87l0,-1177.834c0,-92.526 -7.503,-160.67 -22.506,-204.432c-15.005,-43.763 -44.388,-73.772 -88.151,-90.025c-43.761,-16.255 -108.155,-25.632 -193.178,-28.133l0,-75.022c52.514,2.501 121.284,5.002 206.308,7.503c85.024,2.501 176.3,3.75 273.827,3.75c87.526,0 174.424,-1.25 260.699,-3.75c86.275,-2.501 158.169,-5.002 215.687,-7.503l0,75.022c-85.024,2.501 -149.417,11.878 -193.18,28.133c-43.761,16.253 -73.146,46.262 -88.149,90.025c-15.005,43.761 -22.506,111.905 -22.506,204.432l0,1241.602c0,127.535 6.251,248.195 18.754,361.976c12.505,113.783 38.137,213.81 76.898,300.085c38.761,86.275 98.153,153.794 178.175,202.557c80.024,48.763 186.302,73.146 318.84,73.146c190.055,0 336.971,-41.887 440.75,-125.661c103.78,-83.772 176.3,-199.432 217.561,-346.972c41.262,-147.541 61.892,-313.84 61.892,-498.89l0,-1170.331c0,-92.526 -10.627,-163.798 -31.883,-213.81c-21.255,-50.015 -56.891,-86.275 -106.905,-108.781c-50.015,-22.506 -117.534,-35.009 -202.557,-37.51l0,-75.022c45.013,2.501 104.404,5.002 178.175,7.503c73.772,2.501 141.916,3.75 204.433,3.75c65.018,0 129.412,-1.25 193.18,-3.75c63.767,-2.501 115.657,-5.002 155.668,-7.503Zm-1515.429,-817.732c52.515,32.51 105.031,73.772 157.545,123.785c52.515,50.015 115.659,108.157 189.43,174.424c73.77,66.27 168.173,143.166 283.204,230.69l-26.257,48.765c-127.535,-65.018 -238.193,-115.657 -331.969,-151.918c-93.776,-36.26 -173.8,-67.519 -240.067,-93.778c-66.27,-26.257 -126.911,-55.639 -181.927,-88.149c-52.515,-35.009 -83.774,-71.896 -93.776,-110.656c-10.004,-38.761 -5.002,-74.397 15.004,-106.905c20.005,-32.51 50.639,-53.14 91.902,-61.892c41.26,-8.752 86.9,3.126 136.913,35.634Z" style="fill-rule:nonzero;"/><path d="M7715.93,856.15l0,75.022c-85.024,2.501 -149.417,11.878 -193.178,28.133c-43.763,16.253 -73.146,46.262 -88.151,90.025c-15.004,43.761 -22.506,111.905 -22.506,204.432l0,1860.527c0,90.025 7.503,157.545 22.506,202.557c15.005,45.013 44.388,75.02 88.151,90.025c43.761,15.004 108.155,25.007 193.178,30.007l0,75.022c-57.515,-5.002 -129.412,-8.127 -215.685,-9.377c-86.275,-1.251 -173.175,-1.876 -260.699,-1.876c-97.528,0 -188.803,0.625 -273.827,1.876c-85.024,1.25 -153.794,4.375 -206.31,9.377l0,-75.022c85.025,-5 149.419,-15.004 193.18,-30.007c43.763,-15.005 73.146,-45.013 88.149,-90.025c15.005,-45.013 22.506,-112.532 22.506,-202.557l0,-2063.084l15.005,11.253l-919.01,2468.199l-60.016,0l-945.267,-2434.439l0,1980.56c0,90.025 8.127,160.67 24.381,211.936c16.255,51.264 48.765,87.525 97.528,108.78c48.763,21.257 121.909,34.386 219.437,39.386l0,75.022c-45.013,-5.002 -103.78,-8.127 -176.3,-9.377c-72.519,-1.251 -141.29,-1.876 -206.308,-1.876c-62.517,0 -125.661,0.625 -189.428,1.876c-63.769,1.25 -116.909,4.375 -159.421,9.377l0,-75.022c85.024,-5 149.417,-18.129 193.18,-39.386c43.761,-21.255 73.146,-57.515 88.149,-108.78c15.004,-51.266 22.506,-121.911 22.506,-211.936l0,-1823.015c0,-92.526 -7.503,-160.67 -22.506,-204.432c-15.004,-43.763 -44.388,-73.772 -88.149,-90.025c-43.763,-16.255 -108.157,-25.632 -193.18,-28.133l0,-75.022c42.512,2.501 95.652,5.002 159.421,7.503c63.767,2.501 126.911,3.75 189.428,3.75c55.016,0 111.907,-1.25 170.674,-3.75c58.767,-2.501 108.155,-5.002 148.166,-7.503l851.491,2243.134l-63.769,30.009l843.989,-2261.889l176.3,0c87.525,0 174.424,-1.25 260.699,-3.75c86.273,-2.501 158.169,-5.002 215.685,-7.503Z" style="fill-rule:nonzero;"/><path d="M8987.54,856.15l0,75.022c-85.024,2.501 -149.417,11.878 -193.178,28.133c-43.763,16.253 -73.146,46.262 -88.151,90.025c-15.004,43.761 -22.506,111.905 -22.506,204.432l0,1860.527c0,90.025 7.503,157.545 22.506,202.557c15.005,45.013 44.388,75.02 88.151,90.025c43.761,15.004 108.155,25.007 193.178,30.007l0,75.022c-57.515,-5.002 -129.412,-8.127 -215.685,-9.377c-86.275,-1.251 -173.175,-1.876 -260.699,-1.876c-97.528,0 -188.803,0.625 -273.827,1.876c-85.024,1.25 -153.794,4.375 -206.31,9.377l0,-75.022c85.025,-5 149.419,-15.004 193.18,-30.007c43.763,-15.005 73.146,-45.013 88.149,-90.025c15.005,-45.013 22.506,-112.532 22.506,-202.557l0,-1860.527c0,-92.526 -7.501,-160.67 -22.506,-204.432c-15.004,-43.763 -44.386,-73.772 -88.149,-90.025c-43.761,-16.255 -108.155,-25.632 -193.18,-28.133l0,-75.022c52.515,2.501 121.286,5.002 206.31,7.503c85.024,2.501 176.299,3.75 273.827,3.75c87.525,0 174.424,-1.25 260.699,-3.75c86.273,-2.501 158.169,-5.002 215.685,-7.503Z" style="fill-rule:nonzero;"/><path d="M11658.296,856.15l0,75.022c-85.024,2.501 -149.417,15.004 -193.18,37.51c-43.761,22.506 -73.146,58.767 -88.149,108.781c-15.005,50.013 -22.506,121.284 -22.506,213.81l0,2239.383l-86.275,0l-1575.445,-2434.439l0,1980.56c0,90.025 8.127,160.67 24.382,211.936c16.255,51.264 48.763,87.525 97.526,108.78c48.765,21.257 121.911,34.386 219.437,39.386l0,75.022c-45.013,-5.002 -103.778,-8.127 -176.299,-9.377c-72.521,-1.251 -141.29,-1.876 -206.31,-1.876c-62.517,0 -125.659,0.625 -189.428,1.876c-63.769,1.25 -116.907,4.375 -159.421,9.377l0,-75.022c85.025,-5 149.419,-18.129 193.18,-39.386c43.763,-21.255 73.146,-57.515 88.149,-108.78c15.005,-51.266 22.506,-121.911 22.506,-211.936l0,-1823.015c0,-92.526 -7.501,-160.67 -22.506,-204.432c-15.004,-43.763 -44.386,-73.772 -88.149,-90.025c-43.761,-16.255 -108.155,-25.632 -193.18,-28.133l0,-75.022c42.514,2.501 95.652,5.002 159.421,7.503c63.769,2.501 126.911,3.75 189.428,3.75c55.016,0 107.532,-1.25 157.545,-3.75c50.015,-2.501 95.027,-5.002 135.038,-7.503l1324.125,2040.576l0,-1605.453c0,-92.526 -8.127,-163.798 -24.382,-213.81c-16.253,-50.015 -48.763,-86.275 -97.526,-108.781c-48.765,-22.506 -121.911,-35.009 -219.437,-37.51l0,-75.022c45.013,2.501 104.404,5.002 178.175,7.503c73.77,2.501 141.916,3.75 204.433,3.75c65.018,0 129.412,-1.25 193.178,-3.75c63.769,-2.501 115.659,-5.002 155.67,-7.503Z" style="fill-rule:nonzero;"/><path d="M12982.419,837.395l915.26,2359.418c37.51,95.027 80.022,158.169 127.535,189.428c47.514,31.259 91.277,48.138 131.288,50.639l0,75.022c-50.015,-5.002 -111.282,-8.127 -183.803,-9.377c-72.519,-1.251 -145.04,-1.876 -217.561,-1.876c-97.528,0 -188.803,0.625 -273.827,1.876c-85.024,1.25 -153.794,4.375 -206.31,9.377l0,-75.022c127.537,-5 208.81,-26.882 243.82,-65.643c35.011,-38.761 27.508,-121.909 -22.506,-249.446l-697.697,-1864.276l60.016,-48.765l-652.685,1695.48c-40.011,100.029 -63.767,184.428 -71.27,253.197c-7.503,68.769 -0.625,123.16 20.63,163.171c21.257,40.011 57.517,68.769 108.781,86.275c51.264,17.505 115.657,27.506 193.18,30.007l0,75.022c-70.02,-5.002 -143.166,-8.127 -219.437,-9.377c-76.271,-1.251 -146.916,-1.876 -211.936,-1.876c-62.517,0 -115.657,0.625 -159.419,1.876c-43.763,1.25 -84.399,4.375 -121.911,9.377l0,-75.022c50.015,-12.503 101.279,-41.887 153.794,-88.149c52.515,-46.262 100.029,-125.661 142.541,-238.193l881.499,-2273.143l60.016,-0Zm457.63,1594.201l0,75.022l-1117.815,0l37.51,-75.022l1080.305,0Z" style="fill-rule:nonzero;"/></g><g><path d="M2777.746,5220.386l0,-536.667l240.867,0c61.667,0 109.161,12.342 142.48,37.027c33.318,24.685 49.977,58.653 49.977,101.907c0,28.781 -6.615,53.227 -19.843,73.337c-13.228,20.11 -30.787,35.45 -52.672,46.025c-21.887,10.573 -45.558,15.859 -71.019,15.859l13.68,-22.915c30.61,0 57.753,5.349 81.428,16.046c23.675,10.697 42.305,26.484 55.89,47.359c13.585,20.877 20.376,46.608 20.376,77.195c0,45.839 -17.157,81.437 -51.475,106.794c-34.316,25.357 -85.479,38.034 -153.488,38.034l-256.2,0Zm76.201,-62.483l176.585,0c42.566,0 75.13,-7.072 97.696,-21.215c22.564,-14.143 33.846,-36.68 33.846,-67.611c0,-30.922 -11.282,-53.544 -33.846,-67.868c-22.566,-14.323 -55.13,-21.484 -97.696,-21.484l-183.007,0l0,-62.483l163.792,0c39.019,0 69.262,-7.092 90.724,-21.275c21.462,-14.184 32.193,-35.598 32.193,-64.244c0,-28.648 -10.731,-50.061 -32.193,-64.246c-21.462,-14.183 -51.705,-21.275 -90.724,-21.275l-157.37,0l0,411.701Z" style="fill-rule:nonzero;"/><path d="M3519.336,5220.386l0,-536.667l378.793,0l0,66.365l-302.594,0l0,403.937l313.447,0l0,66.365l-389.646,0Zm69.779,-240.015l0,-65.07l275.807,0l0,65.07l-275.807,0Z" style="fill-rule:nonzero;"/><path d="M4112.294,5220.386l243.344,-536.667l75.553,0l243.98,536.667l-80.44,0l-217.136,-493.973l30.98,0l-217.134,493.973l-79.147,0Zm103.403,-133.927l21.264,-61.824l301.778,0l21.91,61.824l-344.952,0Z" style="fill-rule:nonzero;"/><path d="M5126.876,5226.567c-70.796,0 -126.342,-20.205 -166.635,-60.614c-40.295,-40.411 -60.441,-99.52 -60.441,-177.329l0,-304.905l76.199,0l0,302.199c0,59.473 13.176,103.065 39.53,130.776c26.356,27.712 63.686,41.567 111.993,41.567c48.309,0 85.639,-13.855 111.993,-41.567c26.354,-27.712 39.532,-71.304 39.532,-130.776l0,-302.199l74.894,0l0,304.905c0,77.809 -20.146,136.918 -60.436,177.329c-40.29,40.409 -95.832,60.614 -166.63,60.614Z" style="fill-rule:nonzero;"/><path d="M5767.842,5220.386l0,-470.302l-183.796,0l0,-66.365l443.78,0l0,66.365l-183.796,0l0,470.302l-76.189,0Z" style="fill-rule:nonzero;"/><path d="M6395.747,5220.386l0,-205.31l17.429,47.101l-230.109,-378.458l81.734,0l194.124,319.389l-44.982,0l194.768,-319.389l75.9,0l-230.107,378.458l17.429,-47.101l0,205.31l-76.187,0Z" style="fill-rule:nonzero;"/><path d="M7813.687,5226.567c-41.001,0 -80.155,-6.291 -117.462,-18.873c-37.307,-12.582 -66.63,-28.785 -87.969,-48.607l28.212,-59.824c20.324,17.778 46.351,32.595 78.079,44.449c31.729,11.856 64.736,17.784 99.021,17.784c31.073,0 56.307,-3.641 75.702,-10.92c19.393,-7.279 33.695,-17.184 42.903,-29.714c9.208,-12.53 13.812,-26.55 13.812,-42.058c0,-18.648 -5.916,-33.608 -17.753,-44.881c-11.835,-11.271 -27.328,-20.301 -46.478,-27.085c-19.152,-6.783 -40.306,-12.791 -63.466,-18.021c-23.16,-5.232 -46.34,-11.237 -69.539,-18.018c-23.2,-6.779 -44.374,-15.587 -63.52,-26.419c-19.147,-10.834 -34.636,-25.263 -46.473,-43.288c-11.835,-18.025 -17.753,-41.307 -17.753,-69.851c0,-27.823 7.339,-53.36 22.018,-76.612c14.678,-23.252 37.229,-41.914 67.652,-55.985c30.423,-14.071 69.181,-21.107 116.275,-21.107c31.21,0 62.146,4.148 92.809,12.447c30.663,8.297 57.215,20.072 79.656,35.326l-25.265,60.818c-23.192,-14.982 -47.605,-25.981 -73.241,-33.002c-25.636,-7.02 -50.465,-10.529 -74.487,-10.529c-29.971,0 -54.635,3.876 -73.988,11.631c-19.354,7.755 -33.507,18.007 -42.46,30.756c-8.954,12.749 -13.43,27.13 -13.43,43.144c0,18.727 5.918,33.727 17.753,44.998c11.837,11.273 27.33,20.193 46.48,26.763c19.15,6.568 40.326,12.575 63.526,18.021c23.2,5.447 46.379,11.473 69.539,18.077c23.16,6.604 44.312,15.216 63.459,25.834c19.147,10.618 34.638,24.897 46.473,42.843c11.837,17.944 17.753,40.933 17.753,68.963c0,27.393 -7.467,52.715 -22.4,75.967c-14.933,23.252 -37.78,41.892 -68.538,55.924c-30.76,14.031 -69.727,21.048 -116.9,21.048Z" style="fill-rule:nonzero;"/><path d="M8393.242,5220.386l0,-470.302l-183.798,0l0,-66.365l443.78,0l0,66.365l-183.796,0l0,470.302l-76.187,0Z" style="fill-rule:nonzero;"/><path d="M9110.401,5226.567c-70.796,0 -126.342,-20.205 -166.635,-60.614c-40.295,-40.411 -60.441,-99.52 -60.441,-177.329l0,-304.905l76.199,0l0,302.199c0,59.473 13.176,103.065 39.53,130.776c26.356,27.712 63.686,41.567 111.993,41.567c48.309,0 85.639,-13.855 111.993,-41.567c26.354,-27.712 39.532,-71.304 39.532,-130.776l0,-302.199l74.894,0l0,304.905c0,77.809 -20.146,136.918 -60.436,177.329c-40.29,40.409 -95.832,60.614 -166.63,60.614Z" style="fill-rule:nonzero;"/><path d="M9655.068,5220.386l0,-536.667l225.831,0c57.596,0 108.144,11.304 151.644,33.913c43.5,22.609 77.44,53.995 101.817,94.158c24.379,40.162 36.567,86.916 36.567,140.263c0,53.347 -12.188,100.101 -36.567,140.263c-24.377,40.162 -58.317,71.549 -101.817,94.158c-43.5,22.609 -94.048,33.913 -151.644,33.913l-225.831,0Zm76.199,-66.365l145.512,0c44.33,0 82.692,-8.507 115.083,-25.52c32.391,-17.015 57.526,-40.675 75.404,-70.983c17.877,-30.308 26.815,-65.463 26.815,-105.465c0,-40.434 -8.938,-75.697 -26.815,-105.787c-17.877,-30.092 -43.012,-53.646 -75.404,-70.659c-32.391,-17.015 -70.753,-25.522 -115.083,-25.522l-145.512,0l0,403.937Z" style="fill-rule:nonzero;"/><rect x="10449.335" y="4683.719" width="76.199" height="536.667"/><path d="M11089.684,5226.567c-40.992,0 -78.92,-6.88 -113.783,-20.639c-34.863,-13.761 -65.123,-33.016 -90.778,-57.764c-25.655,-24.75 -45.6,-53.749 -59.831,-86.999c-14.231,-33.25 -21.347,-69.622 -21.347,-109.113c0,-39.491 7.116,-75.863 21.347,-109.113c14.231,-33.25 34.201,-62.281 59.908,-87.094c25.708,-24.813 55.92,-44.067 90.641,-57.764c34.719,-13.696 72.62,-20.544 113.7,-20.544c41.08,0 78.918,6.81 113.513,20.43c34.597,13.621 64.703,32.767 90.317,57.44c25.616,24.674 45.54,53.711 59.771,87.112c14.231,33.403 21.347,69.934 21.347,109.592c0,39.667 -7.116,76.18 -21.347,109.538c-14.231,33.358 -34.156,62.373 -59.771,87.047c-25.614,24.672 -55.72,43.819 -90.317,57.44c-34.595,13.621 -72.386,20.43 -113.371,20.43Zm-0.142,-68.306c29.892,0 57.461,-5.124 82.71,-15.375c25.247,-10.25 47.238,-24.705 65.969,-43.365c18.731,-18.659 33.318,-40.493 43.76,-65.501c10.443,-25.009 15.663,-52.395 15.663,-82.159c0,-29.764 -5.196,-57.069 -15.591,-81.914c-10.394,-24.845 -24.966,-46.608 -43.718,-65.286c-18.751,-18.68 -40.765,-33.153 -66.041,-43.419c-25.276,-10.265 -52.859,-15.398 -82.751,-15.398c-29.892,0 -57.526,5.139 -82.903,15.416c-25.376,10.279 -47.476,24.771 -66.298,43.479c-18.824,18.707 -33.453,40.501 -43.891,65.376c-10.439,24.878 -15.657,52.118 -15.657,81.722c0,29.606 5.209,56.912 15.627,81.92c10.418,25.009 25.02,46.919 43.808,65.729c18.787,18.812 40.897,33.311 66.329,43.497c25.43,10.187 53.093,15.279 82.985,15.279Z" style="fill-rule:nonzero;"/></g></svg>