<?xml version="1.0" encoding="UTF-8" standalone="no"?>
<!DOCTYPE svg PUBLIC "-//W3C//DTD SVG 1.1//EN" "http://www.w3.org/Graphics/SVG/1.1/DTD/svg11.dtd">
<svg width="100%" height="100%" viewBox="0 0 1400 333" version="1.1" xmlns="http://www.w3.org/2000/svg" xmlns:xlink="http://www.w3.org/1999/xlink" xml:space="preserve" xmlns:serif="http://www.serif.com/" style="fill-rule:evenodd;clip-rule:evenodd;stroke-linejoin:round;stroke-miterlimit:2;">
    <g transform="matrix(0.1,0,0,-0.1,-397.810932,558.721033)">
        <path d="M13717,5575C13210,5493 12374,5116 11735,4682C11407,4459 11230,4283 11230,4179C11230,4119 11300,4072 11430,4046C11599,4012 11796,4005 12565,4006L13314,4008L13213,3960C12957,3839 12715,3667 12665,3571C12641,3524 12649,3472 12683,3446C12719,3419 12827,3419 12950,3444C13114,3479 13437,3593 13658,3695C13697,3714 13730,3726 13730,3723C13730,3712 13535,3291 13320,2840C13086,2348 13065,2298 13073,2276C13092,2226 13135,2296 13264,2585C13305,2678 13529,3167 13565,3243C13573,3261 13629,3384 13689,3516L13797,3755L13981,3851C14082,3904 14166,3946 14168,3945C14169,3944 14158,3917 14144,3886C14126,3846 14121,3825 14128,3818C14146,3800 14165,3815 14238,3902C14276,3948 14319,3996 14334,4009C14360,4033 14360,4033 14360,4012C14360,4000 14369,3981 14380,3970C14399,3951 14400,3947 14386,3906C14368,3853 14375,3822 14405,3814C14444,3804 14470,3819 14543,3892C14582,3931 14609,3954 14605,3944C14578,3881 14511,3689 14505,3657C14498,3621 14510,3590 14531,3590C14549,3590 14625,3668 14686,3748C14720,3794 14751,3826 14755,3820C14771,3794 14819,3811 14873,3860C14903,3888 14930,3910 14933,3910C14936,3910 14936,3892 14933,3870C14927,3826 14941,3800 14971,3800C14981,3800 15019,3834 15057,3875C15123,3948 15125,3950 15132,3924C15138,3901 15130,3890 15069,3831C15016,3781 15000,3758 15000,3737C15000,3661 15147,3687 15201,3772C15220,3804 15222,3835 15205,3887C15198,3910 15219,3927 15331,3988C15379,4014 15393,4031 15373,4037C15368,4039 15325,4015 15277,3985C15228,3955 15187,3930 15184,3930C15182,3930 15180,3943 15180,3959C15180,3998 15210,4032 15269,4061C15302,4076 15320,4091 15320,4102C15320,4148 15207,4098 15156,4031C15121,3984 15000,3866 14994,3873C14983,3883 15010,3947 15044,3992C15097,4061 15104,4080 15088,4097C15068,4116 15044,4105 15019,4063C14999,4031 14996,4030 14987,4046C14948,4118 14863,4075 14773,3940C14696,3824 14588,3680 14556,3651C14532,3628 14530,3628 14530,3646C14530,3666 14596,3867 14624,3932C14636,3960 14644,3967 14660,3963C14685,3956 14694,3978 14681,4012C14672,4035 14679,4049 14744,4136C14931,4392 15129,4742 15118,4799C15116,4808 15105,4816 15093,4818C15047,4825 14938,4652 14767,4301C14707,4177 14656,4074 14655,4072C14654,4071 14637,4076 14618,4085C14574,4103 14539,4094 14475,4050C14449,4032 14427,4020 14426,4022C14424,4023 14418,4039 14413,4055C14406,4076 14396,4086 14378,4088C14357,4090 14337,4075 14270,4003C14219,3948 14193,3927 14203,3946C14212,3963 14226,3982 14234,3989C14243,3997 14250,4009 14250,4018C14250,4026 14264,4055 14280,4082C14313,4135 14318,4160 14296,4160C14288,4160 14264,4128 14244,4089C14201,4008 14168,3981 13985,3884C13839,3806 13816,3796 13823,3812C13826,3819 13863,3904 13905,4000C14016.831,4254.31 14104.638,4464.611 14171.09,4639.152C14298.503,4973.812 14347.406,5177.008 14336.613,5306.883C14336.199,5311.855 14335.699,5316.719 14335.112,5321.479C14334.809,5323.931 14334.484,5326.355 14334.136,5328.751C14333.781,5331.196 14333.402,5333.612 14333,5336C14322.79,5395.729 14303.98,5441.384 14272.312,5477.756C14241.947,5512.632 14199.761,5538.973 14142,5561C14068,5589 13850,5596 13717,5575ZM14017,5529C14103,5518 14185,5485 14219,5449C14370,5289 14264,4899 13777,3819L13751,3763L13643,3715C13180,3511 12797,3417 12706,3483C12640,3531 12845,3712 13130,3857C13307,3947 13446,3998 13562,4015C13599,4021 13614,4038 13604,4065C13596,4085 13542,4084 13472,4063C13420,4046 13349,4045 12615,4045C12035,4045 11775,4049 11670,4058C11422,4081 11302,4114 11278,4165C11219,4295 11785,4727 12459,5069C13049,5368 13535,5526 13897,5539C13920,5539 13974,5535 14017,5529ZM15037,4666C14976,4535 14756,4181 14743,4194C14733,4203 14904,4522 14983,4640C15072,4774 15091,4783 15037,4666ZM14600,4030C14612,4022 14604,4009 14555,3960C14487,3891 14442,3855 14433,3864C14414,3883 14507,4011 14555,4031C14581,4041 14582,4041 14600,4030ZM14957,4014C14960,4005 14951,3987 14934,3968C14896,3928 14811,3860 14798,3860C14775,3860 14826,3953 14878,4005C14906,4033 14948,4038 14957,4014ZM15149,3802C15133,3774 15096,3745 15063,3735C15024,3724 15036,3757 15092,3816C15142,3869 15145,3871 15154,3850C15161,3834 15160,3821 15149,3802Z" style="fill-rule:nonzero;"/>
        <path d="M9465,5140C9449,5109 9110,4330 9033,4150C9009,4092 8986,4042 8982,4038C8978,4035 8960,4030 8941,4028C8908,4025 8907,4026 8890,4085C8835,4282 8674,4429 8448,4489C8319,4524 8218,4533 8031,4527C7755,4518 7492,4464 7120,4340C6577,4159 6431,4036 6715,4000C6777,3992 7125,3989 7839,3989L8873,3990L8867,3868C8862,3750 8860,3741 8817,3640C8558,3035 8262,2316 8267,2303C8270,2295 8282,2290 8294,2292C8320,2296 8363,2374 8498,2667C8722,3154 8847,3483 8891,3705C8901,3759 8980,3957 9003,3988C9009,3996 9041,4000 9095,4000L9177,4000L9165,3953C9134,3831 9217,3772 9329,3835C9352,3849 9373,3860 9375,3860C9376,3860 9380,3851 9383,3840C9397,3787 9455,3804 9543,3888C9582,3925 9610,3946 9605,3935C9516,3704 9492,3612 9518,3596C9549,3577 9613,3639 9722,3791L9776,3866L9793,3843C9830,3795 9901,3824 9998,3928C10048,3982 10050,3983 10037,3950C10029,3931 10012,3894 10000,3869C9978,3824 9978,3790 9999,3790C10005,3790 10041,3830 10080,3880C10119,3929 10164,3978 10179,3989L10207,4010L10213,3968C10219,3921 10244,3896 10277,3905C10297,3910 10298,3907 10293,3874C10288,3846 10291,3834 10304,3824C10326,3808 10344,3814 10397,3857C10437,3889 10439,3889 10442,3869C10450,3816 10495,3819 10587,3879L10648,3918L10639,3884C10617,3805 10678,3785 10751,3848C10832,3917 10829,3916 10823,3871C10817,3826 10831,3800 10860,3800C10879,3800 11063,3990 11068,4016C11075,4047 11045,4027 10983,3960C10947,3921 10909,3885 10897,3879C10879,3869 10878,3870 10884,3896C10888,3912 10911,3954 10935,3990C10991,4073 10995,4084 10974,4101C10959,4113 10953,4110 10919,4072C10885,4033 10881,4031 10875,4050C10868,4073 10832,4085 10800,4075C10789,4071 10745,4042 10704,4009C10614,3937 10512,3870 10493,3870C10467,3870 10481,3919 10524,3977C10575,4045 10604,4062 10638,4047C10654,4040 10664,4040 10673,4049C10692,4068 10668,4095 10628,4098C10595,4101 10585,4094 10472,3981C10311,3819 10294,3821 10379,3995C10405,4050 10425,4101 10422,4108C10413,4134 10385,4114 10359,4062C10330,4004 10292,3958 10279,3966C10274,3969 10270,3984 10270,3999C10270,4036 10240,4063 10208,4055C10194,4051 10162,4029 10137,4006C10111,3982 10090,3964 10090,3965C10090,3966 10103,3991 10120,4021C10136,4051 10150,4083 10150,4092C10150,4133 10122,4116 10027,4015C9964,3948 9910,3900 9885,3889C9837,3867 9822,3877 9839,3918C9849,3941 9861,3950 9896,3959C9944,3971 10010,4023 10010,4049C10010,4074 9990,4090 9960,4090C9923,4090 9842,4034 9809,3985C9628,3725 9564,3640 9547,3640C9530,3640 9549,3718 9596,3845C9636,3955 9644,3969 9663,3967C9683,3965 9685,3969 9683,4003C9681,4037 9691,4057 9775,4174C9939,4404 10104,4692 10117,4772C10121,4802 10119,4811 10106,4816C10059,4834 9952,4669 9774,4306C9711,4176 9655,4070 9650,4070C9645,4070 9639,4074 9636,4079C9625,4096 9575,4098 9538,4083C9515,4074 9472,4037 9424,3984C9308,3855 9228,3819 9206,3883C9189,3929 9215,3964 9270,3971C9354,3981 9420,4034 9405,4080C9390,4129 9300,4119 9235,4061C9201,4031 9196,4030 9110,4030L9021,4030L9054,4108C9073,4150 9124,4264 9168,4360C9451,4979 9512,5115 9517,5141C9522,5166 9519,5170 9502,5170C9488,5170 9475,5159 9465,5140ZM10064,4716C10056,4693 10022,4624 9989,4564C9922,4444 9749,4178 9742,4185C9737,4190 9885,4475 9941,4568C9985,4640 10068,4760 10075,4760C10077,4760 10072,4740 10064,4716ZM8345,4476C8580,4425 8741,4317 8814,4159C8833,4118 8851,4071 8855,4054L8861,4023L8488,4017C7978,4009 6899,4017 6768,4030C6655,4041 6610,4052 6610,4070C6610,4088 6722,4153 6848,4207C7166,4344 7584,4458 7893,4490C8007,4502 8261,4494 8345,4476ZM9331,4040C9307,4019 9254,4012 9265,4031C9274,4044 9309,4059 9335,4059C9354,4059 9354,4058 9331,4040ZM9599,4031C9610,4024 9607,4014 9580,3980C9531,3918 9430,3841 9430,3865C9430,3896 9503,3996 9544,4021C9579,4043 9580,4043 9599,4031ZM10850,4012C10850,3981 10700,3847 10683,3863C10672,3874 10722,3964 10757,3996C10799,4035 10850,4043 10850,4012ZM8960,3988C8960,3981 8949,3953 8936,3925L8912,3875L8911,3931C8910,3962 8913,3990 8917,3993C8928,4005 8960,4001 8960,3988ZM8769,3414C8725,3289 8659,3122 8607,3005C8535,2842 8467,2699 8464,2703C8461,2706 8513,2834 8763,3438C8779,3478 8794,3509 8797,3507C8799,3505 8786,3463 8769,3414Z" style="fill-rule:nonzero;"/>
        <g transform="matrix(0.552611,-0.833439,0.833439,0.552611,585.653523,9977.573442)">
            <path d="M9465,5140C9449,5109 9110,4330 9033,4150C9009,4092 9054,4108 9054,4108C9073,4150 9124,4264 9168,4360C9451,4979 9512,5115 9517,5141C9522,5166 9519,5170 9502,5170C9488,5170 9475,5159 9465,5140Z" style="fill-rule:nonzero;"/>
        </g>
        <path d="M10410,4185C10400,4173 10400,4167 10410,4155C10430,4130 10465,4140 10465,4170C10465,4200 10430,4210 10410,4185Z" style="fill-rule:nonzero;"/>
    </g>
</svg>
